<?xml version="1.0" standalone="no"?>
<!DOCTYPE svg PUBLIC "-//W3C//DTD SVG 20010904//EN"
 "http://www.w3.org/TR/2001/REC-SVG-20010904/DTD/svg10.dtd">
<svg version="1.0" xmlns="http://www.w3.org/2000/svg"
 width="512.000000pt" height="512.000000pt" viewBox="0 0 512.000000 512.000000"
 preserveAspectRatio="xMidYMid meet">
<metadata>
Created by potrace 1.11, written by Peter Selinger 2001-2013
</metadata>
<g transform="translate(0.000000,512.000000) scale(0.100000,-0.100000)"
fill="#000000" stroke="none">
<path d="M4788 5114 c-3 -2 -14 -6 -24 -8 -112 -22 -240 -82 -407 -193 -109
-72 -372 -274 -442 -339 -11 -11 -41 -37 -65 -58 -308 -270 -709 -669 -1162
-1157 -53 -57 -106 -115 -118 -129 -12 -14 -33 -38 -48 -55 -15 -16 -46 -52
-69 -78 -24 -26 -43 -44 -43 -40 0 4 -8 -4 -18 -18 -15 -23 -87 -108 -152
-179 -51 -56 -86 -97 -142 -162 -31 -37 -62 -74 -70 -81 -7 -8 -33 -38 -58
-68 -25 -29 -55 -64 -67 -77 -13 -12 -23 -27 -23 -32 0 -4 -4 -10 -9 -12 -7
-2 -61 -65 -131 -152 -8 -10 -27 -32 -41 -48 l-26 -29 -34 18 c-19 10 -35 21
-37 25 -2 5 -12 8 -22 8 -10 0 -20 4 -22 8 -2 5 -106 59 -233 121 -126 62
-242 119 -257 127 -16 8 -28 12 -28 8 0 -4 -9 1 -21 12 -12 10 -24 18 -28 18
-3 -1 -16 2 -29 7 -13 5 -25 9 -27 9 -2 0 -24 9 -49 20 -26 11 -48 20 -51 20
-2 1 -35 13 -72 27 -87 32 -217 70 -266 77 -20 3 -54 9 -75 13 -32 5 -99 6
-159 2 -10 0 -42 -8 -71 -17 -102 -31 -183 -139 -188 -251 -3 -66 13 -100 70
-154 224 -212 411 -409 581 -612 22 -27 46 -58 54 -69 8 -12 17 -23 20 -26 4
-3 19 -23 36 -45 37 -51 46 -62 65 -84 8 -9 28 -37 45 -61 16 -25 33 -47 36
-50 14 -12 259 -380 259 -389 0 -6 5 -11 10 -11 6 0 10 -5 10 -11 0 -6 14 -30
30 -54 17 -24 30 -48 30 -53 0 -6 3 -12 8 -14 6 -3 177 -284 230 -379 40 -71
47 -84 52 -89 3 -3 16 -25 29 -50 13 -25 33 -63 45 -85 11 -22 26 -43 31 -47
6 -4 6 -8 1 -8 -5 0 -3 -8 5 -17 8 -10 21 -30 29 -45 20 -41 49 -68 86 -84 35
-15 94 -16 94 -2 0 4 6 8 13 8 25 0 57 47 93 136 20 49 41 100 47 114 6 14 11
28 12 33 2 4 4 9 5 12 1 3 3 8 5 13 2 9 31 75 56 129 10 24 19 48 19 54 0 6 6
23 14 37 7 15 18 38 24 52 6 14 20 46 31 72 12 26 21 52 21 57 0 6 5 11 10 11
6 0 10 6 10 14 0 8 6 27 14 43 28 54 80 168 77 168 -1 0 17 38 40 85 24 47 43
87 44 90 1 7 215 432 249 494 14 27 31 55 37 62 6 8 8 14 4 14 -4 0 -2 7 6 16
7 8 23 34 35 57 45 83 61 113 81 147 48 82 157 267 172 292 9 14 33 55 53 90
21 36 44 71 53 78 8 7 15 17 15 22 0 8 207 327 219 338 3 3 23 30 43 60 56 82
105 154 115 165 5 6 26 35 48 65 22 30 42 57 46 60 3 3 10 12 15 21 10 19 27
40 191 246 158 198 204 254 226 274 9 9 17 19 17 22 0 3 15 21 33 40 17 18 61
67 97 107 120 136 213 233 525 546 294 294 385 389 385 401 0 3 8 17 18 31 35
50 48 127 32 177 -29 88 -123 146 -245 151 -40 2 -75 1 -77 -2z"/>
</g>
</svg>
